<?xml version="1.0" encoding="UTF-8" standalone="no"?>
<!DOCTYPE svg PUBLIC "-//W3C//DTD SVG 1.1//EN"
 "http://www.w3.org/Graphics/SVG/1.1/DTD/svg11.dtd">
<!-- Generated by graphviz version 11.0.0 (20240428.1522)
 -->
<!-- Title: dependency&#45;cruiser output Pages: 1 -->
<svg width="325pt" height="320pt"
 viewBox="0.00 0.00 325.00 320.00" xmlns="http://www.w3.org/2000/svg" xmlns:xlink="http://www.w3.org/1999/xlink">
<g id="graph0" class="graph" transform="scale(1 1) rotate(0) translate(4 316)">
<title>dependency&#45;cruiser output</title>
<polygon fill="white" stroke="none" points="-4,4 -4,-316 321,-316 321,4 -4,4"/>
<g id="clust1" class="cluster">
<title>cluster_packages</title>
<path fill="#ffffff" stroke="black" stroke-width="2" d="M20,-8C20,-8 297,-8 297,-8 303,-8 309,-14 309,-20 309,-20 309,-292 309,-292 309,-298 303,-304 297,-304 297,-304 20,-304 20,-304 14,-304 8,-298 8,-292 8,-292 8,-20 8,-20 8,-14 14,-8 20,-8"/>
<text text-anchor="middle" x="158.5" y="-291.45" font-family="Helvetica,sans-Serif" font-weight="bold" font-size="9.00">packages</text>
</g>
<g id="clust2" class="cluster">
<title>cluster_packages/resources</title>
<path fill="#ffffff" stroke="black" stroke-width="2" d="M243,-166C243,-166 289,-166 289,-166 295,-166 301,-172 301,-178 301,-178 301,-236 301,-236 301,-242 295,-248 289,-248 289,-248 243,-248 243,-248 237,-248 231,-242 231,-236 231,-236 231,-178 231,-178 231,-172 237,-166 243,-166"/>
<text text-anchor="middle" x="266" y="-235.45" font-family="Helvetica,sans-Serif" font-weight="bold" font-size="9.00">resources</text>
</g>
<g id="clust3" class="cluster">
<title>cluster_packages/web</title>
<path fill="#ffffff" stroke="black" stroke-width="2" d="M98,-16C98,-16 289,-16 289,-16 295,-16 301,-22 301,-28 301,-28 301,-146 301,-146 301,-152 295,-158 289,-158 289,-158 98,-158 98,-158 92,-158 86,-152 86,-146 86,-146 86,-28 86,-28 86,-22 92,-16 98,-16"/>
<text text-anchor="middle" x="193.5" y="-145.45" font-family="Helvetica,sans-Serif" font-weight="bold" font-size="9.00">web</text>
</g>
<g id="clust4" class="cluster">
<title>cluster_packages/worker</title>
<path fill="#ffffff" stroke="black" stroke-width="2" d="M28,-166C28,-166 211,-166 211,-166 217,-166 223,-172 223,-178 223,-178 223,-266 223,-266 223,-272 217,-278 211,-278 211,-278 28,-278 28,-278 22,-278 16,-272 16,-266 16,-266 16,-178 16,-178 16,-172 22,-166 28,-166"/>
<text text-anchor="middle" x="119.5" y="-265.45" font-family="Helvetica,sans-Serif" font-weight="bold" font-size="9.00">worker</text>
</g>
<!-- packages/resources/episodes/ -->
<g id="node1" class="node">
<title>packages/resources/episodes/</title>
<g id="a_node1"><a xlink:href="packages/resources/episodes/" xlink:title="episodes">
<polygon fill="#ffffcc" stroke="black" points="293,-191.88 240.97,-191.88 239,-189.9 239,-174.12 291.03,-174.12 293,-176.1 293,-191.88"/>
<polyline fill="none" stroke="black" points="291.03,-189.9 239,-189.9"/>
<polyline fill="none" stroke="black" points="291.03,-189.9 291.03,-174.12"/>
<polyline fill="none" stroke="black" points="291.03,-189.9 293,-191.88"/>
<text text-anchor="start" x="247.25" y="-179.32" font-family="Helvetica,sans-Serif" font-size="9.00">episodes</text>
</a>
</g>
</g>
<!-- packages/resources/tags/ -->
<g id="node2" class="node">
<title>packages/resources/tags/</title>
<g id="a_node2"><a xlink:href="packages/resources/tags/" xlink:title="tags">
<polygon fill="#ffffcc" stroke="black" points="293,-221.88 240.97,-221.88 239,-219.9 239,-204.12 291.03,-204.12 293,-206.1 293,-221.88"/>
<polyline fill="none" stroke="black" points="291.03,-219.9 239,-219.9"/>
<polyline fill="none" stroke="black" points="291.03,-219.9 291.03,-204.12"/>
<polyline fill="none" stroke="black" points="291.03,-219.9 293,-221.88"/>
<text text-anchor="start" x="257.38" y="-209.32" font-family="Helvetica,sans-Serif" font-size="9.00">tags</text>
</a>
</g>
</g>
<!-- packages/web/app.js -->
<g id="node3" class="node">
<title>packages/web/app.js</title>
<g id="a_node3"><a xlink:href="packages/web/app.js" xlink:title="no&#45;orphans">
<path fill="#ccffcc" stroke="orange" d="M142.08,-41.88C142.08,-41.88 99.92,-41.88 99.92,-41.88 96.96,-41.88 94,-38.92 94,-35.96 94,-35.96 94,-30.04 94,-30.04 94,-27.08 96.96,-24.12 99.92,-24.12 99.92,-24.12 142.08,-24.12 142.08,-24.12 145.04,-24.12 148,-27.08 148,-30.04 148,-30.04 148,-35.96 148,-35.96 148,-38.92 145.04,-41.88 142.08,-41.88"/>
<text text-anchor="start" x="108.62" y="-29.32" font-family="Helvetica,sans-Serif" font-size="9.00" fill="orange">app.js</text>
</a>
</g>
</g>
<!-- packages/web/client/ -->
<g id="node4" class="node">
<title>packages/web/client/</title>
<g id="a_node4"><a xlink:href="packages/web/client/" xlink:title="no&#45;orphans">
<polygon fill="#ccffcc" stroke="orange" points="148,-71.88 95.97,-71.88 94,-69.9 94,-54.12 146.03,-54.12 148,-56.1 148,-71.88"/>
<polyline fill="none" stroke="orange" points="146.03,-69.9 94,-69.9"/>
<polyline fill="none" stroke="orange" points="146.03,-69.9 146.03,-54.12"/>
<polyline fill="none" stroke="orange" points="146.03,-69.9 148,-71.88"/>
<text text-anchor="start" x="110.12" y="-59.33" font-family="Helvetica,sans-Serif" font-size="9.00" fill="orange">client</text>
</a>
</g>
</g>
<!-- packages/web/plugins/ -->
<g id="node5" class="node">
<title>packages/web/plugins/</title>
<g id="a_node5"><a xlink:href="packages/web/plugins/" xlink:title="no&#45;orphans">
<polygon fill="#ffffcc" stroke="orange" points="215,-109.88 162.97,-109.88 161,-107.9 161,-92.12 213.03,-92.12 215,-94.1 215,-109.88"/>
<polyline fill="none" stroke="orange" points="213.03,-107.9 161,-107.9"/>
<polyline fill="none" stroke="orange" points="213.03,-107.9 213.03,-92.12"/>
<polyline fill="none" stroke="orange" points="213.03,-107.9 215,-109.88"/>
<text text-anchor="start" x="173" y="-97.33" font-family="Helvetica,sans-Serif" font-size="9.00" fill="orange">plugins</text>
</a>
</g>
</g>
<!-- packages/web/client/&#45;&gt;packages/web/plugins/ -->
<g id="edge1" class="edge">
<title>packages/web/client/&#45;&gt;packages/web/plugins/</title>
<path fill="none" stroke="#000000" stroke-width="2" stroke-opacity="0.200000" d="M138.24,-72.34C141.48,-74.21 144.85,-76.16 148,-78 153.2,-81.03 158.78,-84.31 164.05,-87.41"/>
<polygon fill="#000000" fill-opacity="0.200000" stroke="#000000" stroke-width="2" stroke-opacity="0.200000" points="162.62,-89.01 168.85,-90.25 164.75,-85.39 162.62,-89.01"/>
</g>
<!-- packages/web/plugins/&#45;&gt;packages/resources/episodes/ -->
<g id="edge3" class="edge">
<title>packages/web/plugins/&#45;&gt;packages/resources/episodes/</title>
<path fill="none" stroke="#000000" stroke-width="2" stroke-opacity="0.200000" d="M200.5,-110.35C207.85,-116.86 217.07,-126.12 223,-136 229,-146 223.91,-151.73 231,-161 233.21,-163.89 235.92,-166.51 238.83,-168.85"/>
<polygon fill="#000000" fill-opacity="0.200000" stroke="#000000" stroke-width="2" stroke-opacity="0.200000" points="237.27,-170.32 243.38,-172.06 239.69,-166.89 237.27,-170.32"/>
</g>
<!-- packages/web/test/ -->
<g id="node6" class="node">
<title>packages/web/test/</title>
<g id="a_node6"><a xlink:href="packages/web/test/" xlink:title="test">
<polygon fill="#ffffcc" stroke="black" points="293,-120.88 240.97,-120.88 239,-118.9 239,-103.12 291.03,-103.12 293,-105.1 293,-120.88"/>
<polyline fill="none" stroke="black" points="291.03,-118.9 239,-118.9"/>
<polyline fill="none" stroke="black" points="291.03,-118.9 291.03,-103.12"/>
<polyline fill="none" stroke="black" points="291.03,-118.9 293,-120.88"/>
<text text-anchor="start" x="258.88" y="-108.33" font-family="Helvetica,sans-Serif" font-size="9.00">test</text>
</a>
</g>
</g>
<!-- packages/web/plugins/&#45;&gt;packages/web/test/ -->
<g id="edge2" class="edge">
<title>packages/web/plugins/&#45;&gt;packages/web/test/</title>
<path fill="none" stroke="#000000" stroke-width="2" stroke-opacity="0.200000" d="M215.15,-104.79C219.88,-105.47 224.87,-106.19 229.8,-106.91"/>
<polygon fill="#000000" fill-opacity="0.200000" stroke="#000000" stroke-width="2" stroke-opacity="0.200000" points="229.3,-108.96 235.54,-107.74 229.91,-104.8 229.3,-108.96"/>
</g>
<!-- packages/web/routes/ -->
<g id="node7" class="node">
<title>packages/web/routes/</title>
<g id="a_node7"><a xlink:href="packages/web/routes/" xlink:title="no&#45;orphans">
<polygon fill="#ffffcc" stroke="orange" points="148,-131.88 95.97,-131.88 94,-129.9 94,-114.12 146.03,-114.12 148,-116.1 148,-131.88"/>
<polyline fill="none" stroke="orange" points="146.03,-129.9 94,-129.9"/>
<polyline fill="none" stroke="orange" points="146.03,-129.9 146.03,-114.12"/>
<polyline fill="none" stroke="orange" points="146.03,-129.9 148,-131.88"/>
<text text-anchor="start" x="108.25" y="-119.33" font-family="Helvetica,sans-Serif" font-size="9.00" fill="orange">routes</text>
</a>
</g>
</g>
<!-- packages/web/routes/&#45;&gt;packages/resources/episodes/ -->
<g id="edge6" class="edge">
<title>packages/web/routes/&#45;&gt;packages/resources/episodes/</title>
<path fill="none" stroke="#000000" stroke-width="2" stroke-opacity="0.200000" d="M148.32,-125.76C169.87,-129.03 200.37,-136.07 223,-151 227.75,-154.13 226.78,-157.18 231,-161 234.01,-163.73 237.4,-166.34 240.84,-168.76"/>
<polygon fill="#000000" fill-opacity="0.200000" stroke="#000000" stroke-width="2" stroke-opacity="0.200000" points="239.63,-170.48 245.79,-172.03 241.94,-166.97 239.63,-170.48"/>
</g>
<!-- packages/web/routes/&#45;&gt;packages/resources/tags/ -->
<g id="edge5" class="edge">
<title>packages/web/routes/&#45;&gt;packages/resources/tags/</title>
<path fill="none" stroke="#000000" stroke-width="2" stroke-opacity="0.200000" d="M138.8,-132.37C145.58,-135.95 153.55,-139.91 161,-143 187.75,-154.09 203.44,-141.65 223,-163 233.78,-174.76 220.84,-185.69 231,-198 231.27,-198.32 231.54,-198.64 231.83,-198.95"/>
<polygon fill="#000000" fill-opacity="0.200000" stroke="#000000" stroke-width="2" stroke-opacity="0.200000" points="230.37,-200.48 236.36,-202.63 233.02,-197.22 230.37,-200.48"/>
</g>
<!-- packages/web/routes/&#45;&gt;packages/web/plugins/ -->
<g id="edge4" class="edge">
<title>packages/web/routes/&#45;&gt;packages/web/plugins/</title>
<path fill="none" stroke="#000000" stroke-width="2" stroke-opacity="0.200000" d="M148.44,-114.05C149.71,-113.62 151,-113.18 152.29,-112.75"/>
<polygon fill="#000000" fill-opacity="0.200000" stroke="#000000" stroke-width="2" stroke-opacity="0.200000" points="152.92,-114.75 157.93,-110.84 151.57,-110.77 152.92,-114.75"/>
</g>
<!-- packages/web/routes/&#45;&gt;packages/web/test/ -->
<g id="edge7" class="edge">
<title>packages/web/routes/&#45;&gt;packages/web/test/</title>
<path fill="none" stroke="#000000" stroke-width="2" stroke-opacity="0.200000" d="M148.17,-121.37C168.57,-120.06 197.6,-118.09 223,-116 225.24,-115.82 227.54,-115.62 229.86,-115.41"/>
<polygon fill="#000000" fill-opacity="0.200000" stroke="#000000" stroke-width="2" stroke-opacity="0.200000" points="230,-117.51 235.78,-114.88 229.62,-113.33 230,-117.51"/>
</g>
<!-- packages/web/scripts/ -->
<g id="node8" class="node">
<title>packages/web/scripts/</title>
<g id="a_node8"><a xlink:href="packages/web/scripts/" xlink:title="scripts">
<polygon fill="#ffffcc" stroke="black" points="148,-101.88 95.97,-101.88 94,-99.9 94,-84.12 146.03,-84.12 148,-86.1 148,-101.88"/>
<polyline fill="none" stroke="black" points="146.03,-99.9 94,-99.9"/>
<polyline fill="none" stroke="black" points="146.03,-99.9 146.03,-84.12"/>
<polyline fill="none" stroke="black" points="146.03,-99.9 148,-101.88"/>
<text text-anchor="start" x="107.88" y="-89.33" font-family="Helvetica,sans-Serif" font-size="9.00">scripts</text>
</a>
</g>
</g>
<!-- packages/web/scripts/&#45;&gt;packages/web/plugins/ -->
<g id="edge8" class="edge">
<title>packages/web/scripts/&#45;&gt;packages/web/plugins/</title>
<path fill="none" stroke="#000000" stroke-width="2" stroke-opacity="0.200000" d="M148.44,-96.25C149.58,-96.4 150.74,-96.54 151.9,-96.68"/>
<polygon fill="#000000" fill-opacity="0.200000" stroke="#000000" stroke-width="2" stroke-opacity="0.200000" points="151.58,-98.76 157.79,-97.41 152.09,-94.59 151.58,-98.76"/>
</g>
<!-- packages/worker/app.js -->
<g id="node9" class="node">
<title>packages/worker/app.js</title>
<g id="a_node9"><a xlink:href="packages/worker/app.js" xlink:title="no&#45;orphans">
<path fill="#ccffcc" stroke="orange" d="M72.08,-191.88C72.08,-191.88 29.92,-191.88 29.92,-191.88 26.96,-191.88 24,-188.92 24,-185.96 24,-185.96 24,-180.04 24,-180.04 24,-177.08 26.96,-174.12 29.92,-174.12 29.92,-174.12 72.08,-174.12 72.08,-174.12 75.04,-174.12 78,-177.08 78,-180.04 78,-180.04 78,-185.96 78,-185.96 78,-188.92 75.04,-191.88 72.08,-191.88"/>
<text text-anchor="start" x="38.62" y="-179.32" font-family="Helvetica,sans-Serif" font-size="9.00" fill="orange">app.js</text>
</a>
</g>
</g>
<!-- packages/worker/plugins/ -->
<g id="node10" class="node">
<title>packages/worker/plugins/</title>
<g id="a_node10"><a xlink:href="packages/worker/plugins/" xlink:title="no&#45;orphans">
<polygon fill="#ffffcc" stroke="orange" points="148,-251.88 95.97,-251.88 94,-249.9 94,-234.12 146.03,-234.12 148,-236.1 148,-251.88"/>
<polyline fill="none" stroke="orange" points="146.03,-249.9 94,-249.9"/>
<polyline fill="none" stroke="orange" points="146.03,-249.9 146.03,-234.12"/>
<polyline fill="none" stroke="orange" points="146.03,-249.9 148,-251.88"/>
<text text-anchor="start" x="106" y="-239.32" font-family="Helvetica,sans-Serif" font-size="9.00" fill="orange">plugins</text>
</a>
</g>
</g>
<!-- packages/worker/workers/ -->
<g id="node11" class="node">
<title>packages/worker/workers/</title>
<g id="a_node11"><a xlink:href="packages/worker/workers/" xlink:title="workers">
<polygon fill="#ffffcc" stroke="black" points="215,-221.88 162.97,-221.88 161,-219.9 161,-204.12 213.03,-204.12 215,-206.1 215,-221.88"/>
<polyline fill="none" stroke="black" points="213.03,-219.9 161,-219.9"/>
<polyline fill="none" stroke="black" points="213.03,-219.9 213.03,-204.12"/>
<polyline fill="none" stroke="black" points="213.03,-219.9 215,-221.88"/>
<text text-anchor="start" x="171.88" y="-209.32" font-family="Helvetica,sans-Serif" font-size="9.00">workers</text>
</a>
</g>
</g>
<!-- packages/worker/plugins/&#45;&gt;packages/worker/workers/ -->
<g id="edge9" class="edge">
<title>packages/worker/plugins/&#45;&gt;packages/worker/workers/</title>
<path fill="none" stroke="#000000" stroke-width="2" stroke-opacity="0.200000" d="M142.21,-233.67C147.52,-231.22 153.34,-228.54 158.98,-225.93"/>
<polygon fill="#000000" fill-opacity="0.200000" stroke="#000000" stroke-width="2" stroke-opacity="0.200000" points="159.71,-227.91 164.28,-223.49 157.95,-224.1 159.71,-227.91"/>
</g>
<!-- packages/worker/test/ -->
<g id="node12" class="node">
<title>packages/worker/test/</title>
<g id="a_node12"><a xlink:href="packages/worker/test/" xlink:title="test">
<polygon fill="#ffffcc" stroke="black" points="215,-251.88 162.97,-251.88 161,-249.9 161,-234.12 213.03,-234.12 215,-236.1 215,-251.88"/>
<polyline fill="none" stroke="black" points="213.03,-249.9 161,-249.9"/>
<polyline fill="none" stroke="black" points="213.03,-249.9 213.03,-234.12"/>
<polyline fill="none" stroke="black" points="213.03,-249.9 215,-251.88"/>
<text text-anchor="start" x="180.88" y="-239.32" font-family="Helvetica,sans-Serif" font-size="9.00">test</text>
</a>
</g>
</g>
<!-- packages/worker/plugins/&#45;&gt;packages/worker/test/ -->
<g id="edge10" class="edge">
<title>packages/worker/plugins/&#45;&gt;packages/worker/test/</title>
<path fill="none" stroke="#000000" stroke-width="2" stroke-opacity="0.200000" d="M148.44,-243C149.58,-243 150.74,-243 151.9,-243"/>
<polygon fill="#000000" fill-opacity="0.200000" stroke="#000000" stroke-width="2" stroke-opacity="0.200000" points="151.77,-245.1 157.77,-243 151.77,-240.9 151.77,-245.1"/>
</g>
<!-- packages/worker/workers/&#45;&gt;packages/resources/episodes/ -->
<g id="edge13" class="edge">
<title>packages/worker/workers/&#45;&gt;packages/resources/episodes/</title>
<path fill="none" stroke="#000000" stroke-width="2" stroke-opacity="0.200000" d="M212.63,-203.67C219.21,-201.08 226.46,-198.21 233.41,-195.47"/>
<polygon fill="#000000" fill-opacity="0.200000" stroke="#000000" stroke-width="2" stroke-opacity="0.200000" points="233.76,-197.59 238.57,-193.43 232.22,-193.68 233.76,-197.59"/>
</g>
<!-- packages/worker/workers/&#45;&gt;packages/resources/tags/ -->
<g id="edge12" class="edge">
<title>packages/worker/workers/&#45;&gt;packages/resources/tags/</title>
<path fill="none" stroke="#000000" stroke-width="2" stroke-opacity="0.200000" d="M215.15,-213C219.88,-213 224.87,-213 229.8,-213"/>
<polygon fill="#000000" fill-opacity="0.200000" stroke="#000000" stroke-width="2" stroke-opacity="0.200000" points="229.51,-215.1 235.51,-213 229.51,-210.9 229.51,-215.1"/>
</g>
<!-- packages/worker/routes/ -->
<g id="node13" class="node">
<title>packages/worker/routes/</title>
<g id="a_node13"><a xlink:href="packages/worker/routes/" xlink:title="no&#45;orphans">
<polygon fill="#ccffcc" stroke="orange" points="78,-221.88 25.97,-221.88 24,-219.9 24,-204.12 76.03,-204.12 78,-206.1 78,-221.88"/>
<polyline fill="none" stroke="orange" points="76.03,-219.9 24,-219.9"/>
<polyline fill="none" stroke="orange" points="76.03,-219.9 76.03,-204.12"/>
<polyline fill="none" stroke="orange" points="76.03,-219.9 78,-221.88"/>
<text text-anchor="start" x="38.25" y="-209.32" font-family="Helvetica,sans-Serif" font-size="9.00" fill="orange">routes</text>
</a>
</g>
</g>
<!-- packages/worker/scripts/ -->
<g id="node14" class="node">
<title>packages/worker/scripts/</title>
<g id="a_node14"><a xlink:href="packages/worker/scripts/" xlink:title="scripts">
<polygon fill="#ffffcc" stroke="black" points="78,-251.88 25.97,-251.88 24,-249.9 24,-234.12 76.03,-234.12 78,-236.1 78,-251.88"/>
<polyline fill="none" stroke="black" points="76.03,-249.9 24,-249.9"/>
<polyline fill="none" stroke="black" points="76.03,-249.9 76.03,-234.12"/>
<polyline fill="none" stroke="black" points="76.03,-249.9 78,-251.88"/>
<text text-anchor="start" x="37.88" y="-239.32" font-family="Helvetica,sans-Serif" font-size="9.00">scripts</text>
</a>
</g>
</g>
<!-- packages/worker/scripts/&#45;&gt;packages/worker/plugins/ -->
<g id="edge11" class="edge">
<title>packages/worker/scripts/&#45;&gt;packages/worker/plugins/</title>
<path fill="none" stroke="#000000" stroke-width="2" stroke-opacity="0.200000" d="M78.49,-243C80.7,-243 82.97,-243 85.24,-243"/>
<polygon fill="#000000" fill-opacity="0.200000" stroke="#000000" stroke-width="2" stroke-opacity="0.200000" points="84.9,-245.1 90.9,-243 84.9,-240.9 84.9,-245.1"/>
</g>
</g>
</svg>
