<svg height="140" viewBox="0 0 140 140" width="140"
  xmlns="http://www.w3.org/2000/svg">
  <g fill="none" fill-rule="evenodd" transform="translate(-4 -14)">
    <path d="m4 14h140v140h-140z" fill="#8be028"/>
    <g transform="matrix(.70710678 -.70710678 .70710678 .70710678 0 75.660426)">
      <path d="m7 64.9835977v.206832c8.2519531 0 10.9179687 3.3007812 10.9179687 13.2666015v15.7421875c0 16.3769533 8.0615235 23.6132813 26.3427735 23.6132813h5.5859375v-11.870117h-2.8564453c-10.3466797 0-14.0283203-3.554688-14.0283203-13.4570314v-18.4716797c0-9.5214844-4.2529297-14.7265625-12.5683594-15.4882813v-1.7773437c8.5693359-.8251953 12.5683594-5.5859375 12.5683594-14.7900391v-16.5673828c0-10.0927734 3.5546875-13.5839844 14.0283203-13.5839844h2.8564453v-11.8066406h-5.5859375c-18.3447266 0-26.3427735 6.98242187-26.3427735 22.9785156v13.647461c0 9.9658203-2.7294921 13.3300781-10.9179687 13.3300781v.0603476c-3.90901591.257293-7 3.5094764-7 7.4835977s3.09098409 7.2263047 7 7.4835977z" fill="#497614"/>
      <g fill="#fff">
        <circle cx="49.5" cy="57.5" r="7.5"/>
        <circle cx="74.5" cy="57.5" r="7.5"/>
        <circle cx="99.5" cy="57.5" r="7.5"/>
      </g>
    </g>
  </g>
</svg>
